<svg xmlns="http://www.w3.org/2000/svg" viewBox="0 0 24 24" fill="none">
<defs>
  <radialGradient id="grad" cx="0.5" cy="0.3" r="0.8">
    <stop offset="0%" stop-color="#0a66c2"/>
    <stop offset="100%" stop-color="#2563eb"/>
  </radialGradient>
</defs>
<rect width="24" height="24" rx="8" fill="url(#grad)"/>
<rect x="6" y="6" width="12" height="12" rx="3" fill="white" fill-opacity="0.12"/><path d="M9 11h1.5v5H9v-5zm.8-2a.75.75 0 1 1 0-1.5.75.75 0 0 1 0 1.5zM13 11.2c0-.9.7-1.2 1.2-1.2.5 0 .8.1 1.1.4V11h.1c.2-.3.6-.5 1-.5 1 0 1.2.7 1.2 1.5V16h-1.5v-3.2c0-.8 0-1.8-1.1-1.8-1.1 0-1.3.9-1.3 1.8V16H13v-4.8z" fill="white"/>
</svg>