<svg xmlns="http://www.w3.org/2000/svg" viewBox="0 0 24 24" fill="none">
<defs>
  <radialGradient id="grad" cx="0.5" cy="0.3" r="0.8">
    <stop offset="0%" stop-color="#10b981"/>
    <stop offset="100%" stop-color="#14b8a6"/>
  </radialGradient>
</defs>
<rect width="24" height="24" rx="8" fill="url(#grad)"/>
<path d="M7.5 18.5l-1.4-1.4a2 2 0 0 1-.5-2.3l1.1-2.4a1.2 1.2 0 0 1 1.3-.7l2.5.5a1 1 0 0 1 .8.8l.5 2.5a1.2 1.2 0 0 1-.7 1.3l-2.4 1.1a2 2 0 0 1-2.3-.5z" fill="white" opacity="0.95"/><path d="M19 5c-1.5-1.4-3.6-2.1-5.6-2.1-2 0-3.9.7-5.3 2.1-3 3-3 7.9 0 10.9l.6.6a1 1 0 0 0 1.4 0l2-2a1 1 0 0 0 .2-1.2l-1-2.5a1 1 0 0 1 .8-1.3l2.5-.5a1 1 0 0 0 .8-.8l.5-2.5a1 1 0 0 1 1.3-.7l2.4 1.1a1 1 0 0 0 1.2-.2l2-2a1 1 0 0 0 0-1.4l-.6-.6z" fill="white" fill-opacity="0.2"/>
</svg>