<svg xmlns="http://www.w3.org/2000/svg" viewBox="0 0 24 24" fill="none">
<defs>
  <radialGradient id="grad" cx="0.5" cy="0.3" r="0.8">
    <stop offset="0%" stop-color="#ef4444"/>
    <stop offset="100%" stop-color="#f97316"/>
  </radialGradient>
</defs>
<rect width="24" height="24" rx="8" fill="url(#grad)"/>
<path d="M12 5.5c-1.3 0-2.6.8-3.4 1.8-1 1.3-1.5 3-1.4 4.5.1 1.5.7 2.9 1.7 4.2l-1.6 1.6c-.3.3-.4.8-.2 1.2l.7 1.5c.2.4.7.6 1.1.4l1.7-.7a10.6 10.6 0 0 0 4.8 0l1.7.7c.4.2.9 0 1.1-.4l.7-1.5c.2-.4.1-.9-.2-1.2l-1.6-1.6c1-1.3 1.6-2.7 1.7-4.2.1-1.6-.4-3.2-1.4-4.5A4.8 4.8 0 0 0 12 5.5Z" fill="white" fill-opacity="0.95"/><path d="M10.8 14.8 9 16.6" stroke="white" stroke-width="1.2" stroke-linecap="round"/>
</svg>